<svg width="58" height="40" viewBox="0 0 58 40" fill="none" xmlns="http://www.w3.org/2000/svg">
<path d="M55.879 6.24841C55.5541 5.03846 54.9171 3.93506 54.0318 3.04864C53.1465 2.16221 52.0439 1.52386 50.8344 1.19745C46.3822 2.42974e-07 28.535 0 28.535 0C28.535 0 10.6879 -2.42974e-07 6.23567 1.19108C5.02561 1.51643 3.92245 2.15443 3.03698 3.04102C2.15151 3.92761 1.5149 5.03157 1.19108 6.24204C-2.42974e-07 10.7006 0 20 0 20C0 20 -2.42974e-07 29.2994 1.19108 33.7516C1.84713 36.2102 3.78344 38.1465 6.23567 38.8025C10.6879 40 28.535 40 28.535 40C28.535 40 46.3822 40 50.8344 38.8025C53.293 38.1465 55.2229 36.2102 55.879 33.7516C57.0701 29.2994 57.0701 20 57.0701 20C57.0701 20 57.0701 10.7006 55.879 6.24841ZM22.8662 28.535V11.465L37.6433 19.9363L22.8662 28.535Z" fill="#FFB6A9"/>
</svg>
